<svg width="15" height="13" viewBox="0 0 15 13" fill="none" xmlns="http://www.w3.org/2000/svg">
<path d="M12.6567 7.84375C12.9146 7.84375 13.1489 7.67969 13.2192 7.42188L14.3208 2.54688C14.3911 2.19531 14.1333 1.84375 13.7583 1.84375H4.5708L4.35986 0.8125C4.28955 0.554688 4.05518 0.34375 3.79736 0.34375H1.40674C1.07861 0.34375 0.844238 0.601562 0.844238 0.90625V1.28125C0.844238 1.60938 1.07861 1.84375 1.40674 1.84375H3.02393L4.68799 9.90625C4.26611 10.1406 3.98486 10.5859 4.03174 11.125C4.05518 11.7812 4.59424 12.3203 5.27393 12.3438C6.02393 12.3906 6.65674 11.7812 6.65674 11.0312C6.65674 10.6797 6.49268 10.3516 6.2583 10.0938H11.1567C10.9224 10.3516 10.7583 10.7031 10.7817 11.0781C10.7817 11.7812 11.3677 12.3438 12.0708 12.3438C12.7974 12.3672 13.4067 11.7812 13.4067 11.0312C13.4067 10.5156 13.1021 10.0703 12.6567 9.85938L12.7739 9.29688C12.8677 8.94531 12.5864 8.59375 12.2349 8.59375H5.95361L5.78955 7.84375H12.6567ZM10.2896 4.84375C10.5239 4.84375 10.6646 5.14844 10.4771 5.33594L8.90674 6.90625C8.78955 7.02344 8.62549 7.02344 8.5083 6.90625L6.93799 5.33594C6.75049 5.14844 6.89111 4.84375 7.12549 4.84375H8.15674V3.4375C8.15674 3.29688 8.27393 3.15625 8.43799 3.15625H9.00049C9.14111 3.15625 9.28174 3.29688 9.28174 3.4375V4.84375H10.2896Z" fill="white"/>
</svg>
